<!--?xml version="1.0" standalone="no"?-->
              <svg id="sw-js-blob-svg" viewBox="0 0 100 100" xmlns="http://www.w3.org/2000/svg" version="1.1">
                    <defs> 
                        <linearGradient id="sw-gradient" x1="0" x2="1" y1="1" y2="0">
                            <stop id="stop1" stop-color="rgba(248, 117, 55, 1)" offset="0%"></stop>
                            <stop id="stop2" stop-color="rgba(251, 168, 31, 1)" offset="100%"></stop>
                        </linearGradient>
                    </defs>
                <path fill="url(#sw-gradient)" d="M20.2,-24.2C26.7,-18.5,33,-12.7,34.2,-6C35.4,0.7,31.5,8.3,27.6,16.7C23.7,25.1,19.8,34.3,13.1,37.4C6.4,40.5,-3.1,37.5,-12.6,34.3C-22.1,31,-31.7,27.4,-36,20.5C-40.3,13.6,-39.3,3.4,-37.2,-6.3C-35.2,-16,-32.1,-25.2,-25.7,-31C-19.3,-36.7,-9.6,-39,-1.4,-37.3C6.8,-35.6,13.6,-30,20.2,-24.2Z" width="100%" height="100%" transform="translate(50 50)" stroke-width="0" style="transition: all 0.3s ease 0s;"></path>
              </svg>