<?xml version="1.0" standalone="no"?>
<svg xmlns:xlink="http://www.w3.org/1999/xlink" id="wave" style="transform:rotate(180deg); transition: 0.3s" viewBox="0 0 1440 170" version="1.1" xmlns="http://www.w3.org/2000/svg"><defs><linearGradient id="sw-gradient-0" x1="0" x2="0" y1="1" y2="0"><stop stop-color="rgba(227.999, 227.451, 227.275, 1)" offset="0%"/><stop stop-color="rgba(7.151, 7.03, 6.764, 1)" offset="100%"/></linearGradient></defs><path style="transform:translate(0, 0px); opacity:1" fill="url(#sw-gradient-0)" d="M0,68L80,82.2C160,96,320,125,480,119C640,113,800,74,960,53.8C1120,34,1280,34,1440,39.7C1600,45,1760,57,1920,68C2080,79,2240,91,2400,82.2C2560,74,2720,45,2880,36.8C3040,28,3200,40,3360,62.3C3520,85,3680,119,3840,130.3C4000,142,4160,130,4320,113.3C4480,96,4640,74,4800,53.8C4960,34,5120,17,5280,14.2C5440,11,5600,23,5760,39.7C5920,57,6080,79,6240,93.5C6400,108,6560,113,6720,113.3C6880,113,7040,108,7200,110.5C7360,113,7520,125,7680,133.2C7840,142,8000,147,8160,147.3C8320,147,8480,142,8640,138.8C8800,136,8960,136,9120,136C9280,136,9440,136,9600,119C9760,102,9920,68,10080,56.7C10240,45,10400,57,10560,76.5C10720,96,10880,125,11040,136C11200,147,11360,142,11440,138.8L11520,136L11520,170L11440,170C11360,170,11200,170,11040,170C10880,170,10720,170,10560,170C10400,170,10240,170,10080,170C9920,170,9760,170,9600,170C9440,170,9280,170,9120,170C8960,170,8800,170,8640,170C8480,170,8320,170,8160,170C8000,170,7840,170,7680,170C7520,170,7360,170,7200,170C7040,170,6880,170,6720,170C6560,170,6400,170,6240,170C6080,170,5920,170,5760,170C5600,170,5440,170,5280,170C5120,170,4960,170,4800,170C4640,170,4480,170,4320,170C4160,170,4000,170,3840,170C3680,170,3520,170,3360,170C3200,170,3040,170,2880,170C2720,170,2560,170,2400,170C2240,170,2080,170,1920,170C1760,170,1600,170,1440,170C1280,170,1120,170,960,170C800,170,640,170,480,170C320,170,160,170,80,170L0,170Z"/></svg>